<svg id="Layer_1" data-name="Layer 1" xmlns="http://www.w3.org/2000/svg" viewBox="0 0 1564.65 1032.64"><path d="M415.09,208.35c-3.69,2.63-7.14,5.7-11.11,7.82-41.35,22.09-69.39,56.1-86.14,99.12-12.58,32.33-21.48,65.84-21.07,101.08.3,25.09-.14,50.21,1,75.26,1.13,25.65,7,50.7,12,75.84,11.64,58,32.81,112.3,61.38,164,11.93,21.58,25.92,41.55,40.75,61.16,13,17.19,30.24,23.61,50.56,23.26,27.92-.47,53-9.45,74.25-27.85,34.45-29.8,69.61-58.83,101-91.91a83.35,83.35,0,0,0,11.8-16.51c3.69-6.53.86-11.28-6.76-11.53A22.85,22.85,0,0,0,632,670.83c-4.78,2.53-9,6.06-13.51,9.17q-19.49,13.53-39,27a47.07,47.07,0,0,1-4.32,2.16c1.76-3.15,2.55-5.06,3.76-6.63,9.15-11.87,18.52-23.58,27.52-35.57a39.66,39.66,0,0,0,6.5-12c1.76-5.86-1.21-9.41-7.2-8.32A60.9,60.9,0,0,0,589,652.6c-13.06,6.77-25.81,14.15-38.7,21.25-1.57.86-3.28,1.47-4.92,2.2l-1-1.3c3.71-4.16,7.4-8.34,11.13-12.48,14.41-16,29.25-31.64,43.16-48.07,21.1-24.92,27.33-54.53,25.4-86.42a197.81,197.81,0,0,0-7.94-44.16c-2-6.8-3.75-13.81-1.3-20.89.9-2.58,2.5-4.91,4.5-8.73,1.52,3,2.25,4.38,2.88,5.77,3.94,8.57,10.77,13,20,13S658.79,468,662,459.39a119.21,119.21,0,0,0,6.26-24.46c2.83-19.5,4-39.12-.63-58.57-4.14-17.65-10.75-34.31-21-49.36-22.46-32.85-48.56-62.37-79.92-87.08a27.7,27.7,0,0,1-2.44-2.16,13.24,13.24,0,0,1-1.24-2.29c2.25,1,3.66,1.57,5,2.29A275.22,275.22,0,0,1,649.57,305c3.29,4,6.6,8,10.14,11.79,17.77,18.95,45.43,21.25,65.67,4.85,8.65-7,16.37-15.22,24.23-23.16,38.68-39.06,82.69-71,130.51-97.82,9.25-5.19,19.1-9.31,28.69-13.88a5,5,0,0,1,4.26-.18c-4.71,3.94-9.35,8-14.15,11.82-18.65,14.85-35.87,31.1-49.4,50.9a98.44,98.44,0,0,0-8.73,14.75c-9,19.83,4.26,40.83,26,40.78,6.7,0,13.5-1.64,20.05-3.31,26.41-6.74,52.72-13.81,79.1-20.66a85.11,85.11,0,0,1,9.34-1.4l.45,1.6c-4.38,1.83-8.74,3.74-13.15,5.48C925.57,301.21,887.81,314,851.8,331c-22.16,10.51-44.39,20.92-66.13,32.25-14.92,7.77-27.13,19.29-36.84,33.07-12.34,17.51-17.27,36.94-12.66,58.17,3.26,15,13.5,24,27.45,28.76a20.81,20.81,0,0,0,12,.1c9.62-2.87,19.46-5.69,28.32-10.26,31.53-16.3,62-34.52,90.37-55.86,41.21-31,81.84-62.69,123.14-93.54,76.29-57,155.18-110.22,235.29-161.66A365.38,365.38,0,0,0,1284,139.72c12.29-9.86,20.57-22.38,22.08-38.69.58-6.25,4.36-10.58,10.42-12.39,15.67-4.69,31.41-9.59,47.88-10,17-.46,31.62-5.91,45.3-16.13,21.62-16.14,44-31.19,66.16-46.69a26,26,0,0,1,8.21-4.16,56.06,56.06,0,0,1-3.88,4.39c-9.22,8.51-18.57,16.88-27.73,25.46-5.57,5.22-11,10.59-16.24,16.15-4.47,4.75-6.79,10.42-6,17.18,1,8,4.37,12.23,12.3,14.24,16.64,4.2,33.56,7.52,49.93,12.6,28.38,8.8,56.34,18.85,82.2,33.9a223.53,223.53,0,0,1,47.28,36.21c44.21,44.83,62.23,98.75,56,161.14-3.84,38.29-18.3,72.11-42.33,102-7.35,9.14-14.77,18.23-21.9,27.54-22.21,29-50.81,50-82.88,66.6-14.28,7.4-28.91,14.1-43.37,21.14-2.44,1.18-4.85,2.45-8,4,1.7,1.74,3,3.3,4.54,4.62,16,13.88,29.15,30,40.43,48,11,17.54,16.64,36.59,18.67,56.95a29.44,29.44,0,0,1-.3,10.31c-1.35-2.39-2.77-4.76-4-7.2-9.21-17.47-21.52-32.17-38.6-42.43a72,72,0,0,0-13.29-6.18,13.68,13.68,0,0,0-7.89,0c-4.2,1.26-5.64,5.27-3.71,9.22a15.08,15.08,0,0,0,3.43,4.53c21.71,19.12,31.69,44.4,38.31,71.64,5.15,21.22,5.88,42.73,4.27,64.24-2.46,32.89-5.79,65.72-9.1,98.54-1.26,12.46-3.77,24.79-5.25,37.24a340.07,340.07,0,0,0-1.42,66.15c2.58,34.2,27.79,57.8,62,58.22,9.08.11,18-.75,26.58-3.73,12-4.16,21.11-11.64,25.14-23.9,3.48-10.58,6-21.48,9-32.21,2.15-7.58,3.66-15.48,7-22.53,2.56-5.47,6.88-10.5,11.45-14.57,13.94-12.41,33.42-4.53,40.37,7.18,6.43,10.83,7.33,22.42,4,34-8.28,28.82-25.86,50-53.56,62.32-20.76,9.23-42.51,10.5-64.89,9.33-26.68-1.4-51.4-9.34-75.36-20.21a97.92,97.92,0,0,1-20.28-12.14q-49.86-39.52-56.85-103c-3.09-27.87-1.16-55.54,1-83.29,1.54-19.3,3-38.61,4.17-57.93.87-14.15,1.67-28.32,1.78-42.48.2-26-8.82-48.58-26.64-67.52-6.17-6.55-12.71-12.75-19.09-19.09-1.55-1.53-3.28-2.9-4.74-4.5-7.93-8.66-9.84-19.13-5.3-28.66,5.33-11.16,14.91-17.38,26.85-16.15,6.69.69,13.24,2.92,19.8,4.68,3.15.84,6.12,2.33,9.25,3.26,4.5,1.33,8.7.85,11.9-3,3-3.59,3.08-8.05.11-13-3.53-5.86-8.56-10-15.4-11.19a93.24,93.24,0,0,0-14.61-1.66c-28.62-.54-57.27-1.65-85.88-1.09-30.68.59-58.92,10.11-84.27,27.64-6.95,4.8-14.3,9.22-20.43,14.93-15.8,14.72-23.41,34-27.23,54.69a249.21,249.21,0,0,0-3.53,33.29c-.69,14.28-5,27.4-11.79,39.64-13.29,23.88-28.62,46.18-47.78,66.06-38.18,39.61-80.55,74.31-123.33,108.63q-30.63,24.57-60.67,49.89c-24.26,20.37-51.93,35.06-80.32,48.47a248.93,248.93,0,0,1-105.21,24c-41.59.38-78.25-12.57-108.67-41.58-5.92-5.64-11.75-11.38-17.57-17.13a16.56,16.56,0,0,1-1.83-2.63c2-3.25,5-2.12,7.49-2.06,15.38.38,30.43-2.07,45.46-4.89,16.75-3.14,30.86-10.94,41.21-24.53,5.91-7.77,11.63-15.92,15.94-24.64,12.22-24.74,19.24-51,19.48-78.72.15-16.6-.19-33.21-.33-51.8-3.56,2.38-5.44,3.59-7.27,4.88-14.29,10-28.23,20.54-42.94,29.88-19.47,12.34-41.34,17.94-64.1,20.55-23.18,2.66-46.27,1.59-69.42-.37a111.44,111.44,0,0,0-39.71,3.63c-8,2.23-15.28,5.77-21.28,11.68-10,9.82-11.87,23.79-4.72,35.91,11.24,19.06,27.72,32.74,46,44.61,2.63,1.71,5.34,3.28,7.42,6.21-6.44-2.64-13-5.06-19.32-8-12.13-5.58-24.14-11.45-36.2-17.17-43.06-20.43-85.28-16-126.7,4.77-10.95,5.48-21.4,12-31.79,18.53-29,18.15-59.9,32.61-91.14,46.12-22.45,9.71-45.65,7.66-66.92-4.71-32-18.59-50.47-47.33-59.66-82.6-6.4-24.57-5.06-48.63,5-72.05a73.6,73.6,0,0,1,22.58-29.62c7.74-6,16.39-9.56,26.39-9.57,19.06,0,31.44,16.39,25.32,34.51-2.14,6.35-5.7,12.38-9.44,18-3.92,5.87-8.86,11.06-13.31,16.58-10.93,13.55-19.21,28.34-22.47,45.74-2.48,13.26,0,25.51,6.25,37.11,3.12,5.75,6.55,11.35,10.22,16.76a60.56,60.56,0,0,0,68.49,23.87c11.7-3.68,23.17-8,33.85-14.21,25.4-14.9,51-29.46,76.36-44.41,15.94-9.39,28.13-22.28,35.22-39.66a26.32,26.32,0,0,0,1.62-13.54c-3.15-27-14.19-51-29.12-73C335.59,747,312,692.49,288.19,638c-11.28-25.83-17.05-53.4-22.77-80.94-8.24-39.66-13.34-79.64-11.9-120.18,1.52-42.8,7.93-84.69,26.25-124,16.11-34.54,38.44-63.92,70.46-85.33,15.85-10.61,32.92-18.14,52-20.6,4-.52,8-.54,12-.79C414.52,206.93,414.81,207.64,415.09,208.35Zm1044.64-9.17,1.38,1.37c-6,11.29-12.42,22.41-18,33.92-23.43,48.42-52.86,93.49-78.19,140.85-13.62,25.47-28.61,50.21-42.84,75.36-7.43,13.14-12.18,27.37-15.78,41.95a36,36,0,0,0-.93,12.89c2.49,19.44,14,31.42,34.74,36.26,21.6,5.05,43.38,3.8,65.08.81,32.64-4.5,61.32-18.81,88.14-37.12,24.13-16.47,43.56-37.57,60.81-61.18,25.37-34.72,41.49-72.53,45.23-115.68,2.81-32.35,0-63.49-12.94-93.68-9.44-21.93-23.81-39.81-42.11-54.39-19.56-15.6-42.68-24.41-67.13-28.33-30.31-4.85-60.33-1.67-89.69,7.48-10.51,3.28-20.41,7.78-29.11,14.54-14.63,11.37-29.55,22.44-43.51,34.62-31.52,27.49-59.22,58.57-85.73,91-61.43,75.05-116.94,154.25-168.91,236-12.58,19.79-24.54,40-36.91,59.88C970.14,681.41,917,767.14,867.7,855.2c-8.64,15.44-16.4,31.39-24.32,47.24a39.06,39.06,0,0,0-3.68,11.63c-2.49,17.11,11.51,28.83,27.55,22.71a65.07,65.07,0,0,0,17.38-10.42c18.78-15.29,34-33.74,46.77-54.3,19-30.59,38.24-61,57-91.7a586.9,586.9,0,0,1,72.17-94.92c11.87-12.68,25.19-23.35,41.71-29.47a93.18,93.18,0,0,0,35.14-23.33c15.36-16,22.65-34.95,19.76-57.43a58.19,58.19,0,0,1,0-15.43c1.34-9.47,3.93-18.67,8.88-27,7.37-12.42,14.12-25.25,22.22-37.17,20.74-30.54,45.38-58,70.1-85.25,23.08-25.45,47-50.11,70.71-75q60.86-64.05,121.86-128C1453.7,204.45,1456.79,201.89,1459.73,199.18ZM986,481.78l1.47.92a49.08,49.08,0,0,0-.47,7.24c.36,4.63,2.42,8.51,6.83,10.39a11,11,0,0,0,12.81-2.58,59.4,59.4,0,0,0,6.19-7.57c5.22-7.32,10.11-14.88,15.5-22.07,40.09-53.44,82.45-105,126.36-155.36,13.59-15.58,25.71-32.44,38.38-48.8a49.31,49.31,0,0,0,5.42-9.12c2.38-5.08,2.17-10.47-1.52-14.61s-8.88-3.62-13.64-1.46a45.68,45.68,0,0,0-7.76,4.47c-35.5,25.32-71.23,50.33-106.31,76.22-18.61,13.74-35.86,29.32-54.1,43.58-44,34.45-87.82,69.17-126.19,110.06a167.25,167.25,0,0,0-17.78,23.29,25.23,25.23,0,0,0-3.59,13.15c0,18.4,13.27,38.35,37.55,38.19,22-.15,41.3-7.68,55.08-25.62,6.61-8.59,11.93-18.18,17.77-27.35C980.76,490.47,983.36,486.11,986,481.78Zm-369.6,278.9c2.52,12.64,9.57,19.71,20.22,23.1a73.73,73.73,0,0,0,46.61-.11c7.83-2.6,15-6.56,20.29-13.21,4.75-6,6.52-13.12,7.89-20.37a21,21,0,0,1,9-14.05c7-4.78,14.22-9.19,20.79-14.47,7-5.61,14.19-11.31,19.67-18.25,13.53-17.1,12.75-28.74-4.83-45.38-.39-.37-.83-.7-1.26-1-11.92-9.25-31.07-13.09-41.9,7.79A213.26,213.26,0,0,1,699,686.86c-3.84,5.58-6.41,5.73-11.27,1.84-7-5.61-11.84-5.89-19.12-.85a68.86,68.86,0,0,0-6.93,5.73c-30.93,27.95-59.57,58.42-92.45,84.23a15.77,15.77,0,0,0-2.34,2.28c-3.19,3.89-3.5,8-.89,11.16,2.83,3.44,7.46,4.16,11.8,1.52a54.26,54.26,0,0,0,6.44-5C594.68,779,605.07,770.24,616.43,760.68Z" transform="translate(-128.28 -11.63)"/></svg>